<svg version="1.1" xmlns="http://www.w3.org/2000/svg" xmlns:xlink="http://www.w3.org/1999/xlink" width="800px" height="800px" viewBox="0,0,256,256"><g fill="#ea580c" fill-rule="nonzero" stroke="none" stroke-width="1" stroke-linecap="butt" stroke-linejoin="miter" stroke-miterlimit="10" stroke-dasharray="" stroke-dashoffset="0" font-family="none" font-weight="none" font-size="none" text-anchor="none" style="mix-blend-mode: normal"><g transform="translate(71.5,-72.5) scale(0.5,0.5)"><g><path d="M113,446c24.8,0 45.1,-20.2 45.1,-45.1c0,-9.8 -3.2,-18.9 -8.5,-26.3c-8.2,-11.3 -21.5,-18.8 -36.5,-18.8c-15,0 -28.3,7.4 -36.5,18.8c-5.3,7.4 -8.5,16.5 -8.5,26.3c-0.1,24.9 20.1,45.1 44.9,45.1z"></path><path d="M211.4,345.9v-37.8v-5.6h-5.6l-37.8,0.1l0.2,43.4z"></path><path d="M183,401c0,38.6 -31.4,70 -70,70c-38.6,0 -70,-31.4 -70,-70c0,-9.3 1.9,-18.2 5.2,-26.3h-38.2v104.8c0,13.5 11,24.5 24.5,24.5h157c13.5,0 24.5,-11 24.5,-24.5v-104.8h-38.2c3.4,8.1 5.2,17 5.2,26.3z"></path><path d="M113,145c-141.4,0 -256,114.6 -256,256c0,141.4 114.6,256 256,256c141.4,0 256,-114.6 256,-256c0,-141.4 -114.6,-256 -256,-256zM241,374.7v104.8c0,27.3 -22.2,49.5 -49.5,49.5h-157c-27.3,0 -49.5,-22.2 -49.5,-49.5v-104.8v-52.3c0,-27.3 22.2,-49.5 49.5,-49.5h157c27.3,0 49.5,22.2 49.5,49.5z"></path></g></g></g></svg>