<svg version="1.1" xmlns="http://www.w3.org/2000/svg" xmlns:xlink="http://www.w3.org/1999/xlink" width="800px" height="800px" viewBox="0,0,256,256"><g fill="#ea580c" fill-rule="evenodd" stroke="none" stroke-width="1" stroke-linecap="butt" stroke-linejoin="miter" stroke-miterlimit="10" stroke-dasharray="" stroke-dashoffset="0" font-family="none" font-weight="none" font-size="none" text-anchor="none" style="mix-blend-mode: normal"><g transform="translate(0,32) scale(8,8)"><g id="Page-1"><g transform="translate(-412,-259)" id="Icon-Set"><path d="M442,279c0,0.203 -0.039,0.395 -0.095,0.578l-8.905,-9.578l9,-7v16zM415.556,280.946l9.024,-9.616l3.42,2.585l3.272,-2.601l9.172,9.632c-0.143,0.033 -24.745,0.033 -24.888,0zM414,279v-16l9,7l-8.905,9.578c-0.056,-0.183 -0.095,-0.375 -0.095,-0.578zM441,261l-13,10l-13,-10h26zM440,259h-24c-2.209,0 -4,1.791 -4,4v16c0,2.209 1.791,4 4,4h24c2.209,0 4,-1.791 4,-4v-16c0,-2.209 -1.791,-4 -4,-4z" id="mail"></path></g></g></g></g></svg>